<svg width="26" height="26" viewBox="0 0 26 26" fill="none" xmlns="http://www.w3.org/2000/svg">
<path d="M2.16677 12.9997C2.16677 14.4223 2.44698 15.8311 2.99141 17.1454C3.53583 18.4598 4.33381 19.654 5.33978 20.66C6.34575 21.666 7.54 22.4639 8.85436 23.0084C10.1687 23.5528 11.5774 23.833 13.0001 23.833C14.4228 23.833 15.8315 23.5528 17.1458 23.0084C18.4602 22.4639 19.6545 21.666 20.6604 20.66C21.6664 19.654 22.4644 18.4598 23.0088 17.1454C23.5532 15.831 23.8334 14.4223 23.8334 12.9997L13.0001 12.9997H2.16677Z" fill="white"/>
<path d="M23.8333 12.9993C23.8333 11.5767 23.5531 10.168 23.0087 8.85361C22.4642 7.53925 21.6663 6.34499 20.6603 5.33903C19.6543 4.33306 18.4601 3.53508 17.1457 2.99065C15.8313 2.44623 14.4226 2.16602 13 2.16602C11.5773 2.16602 10.1686 2.44623 8.85422 2.99065C7.53986 3.53508 6.3456 4.33306 5.33964 5.33903C4.33367 6.34499 3.53569 7.53925 2.99126 8.85361C2.44684 10.168 2.16663 11.5767 2.16663 12.9994L13 12.9993H23.8333Z" fill="#CD3131"/>
<circle cx="13.0002" cy="13" r="3.25" fill="white"/>
<path d="M13 23.8327C18.9832 23.8327 23.8333 18.9826 23.8333 12.9993C23.8333 7.0161 18.9832 2.16602 13 2.16602C7.01671 2.16602 2.16663 7.0161 2.16663 12.9993C2.16663 18.9826 7.01671 23.8327 13 23.8327Z" stroke="#173EA5" stroke-width="1.5" stroke-linecap="round" stroke-linejoin="round"/>
<path d="M12.9999 16.249C13.8618 16.249 14.6885 15.9066 15.298 15.2971C15.9075 14.6876 16.2499 13.861 16.2499 12.999C16.2499 12.1371 15.9075 11.3104 15.298 10.7009C14.6885 10.0914 13.8618 9.74902 12.9999 9.74902C12.1379 9.74902 11.3113 10.0914 10.7018 10.7009C10.0923 11.3104 9.74988 12.1371 9.74988 12.999C9.74988 13.861 10.0923 14.6876 10.7018 15.2971C11.3113 15.9066 12.1379 16.249 12.9999 16.249V16.249Z" stroke="#173EA5" stroke-width="1.5" stroke-linecap="round" stroke-linejoin="round"/>
<path d="M2.16663 12.999H9.74996M16.25 12.999H23.8333" stroke="#173EA5" stroke-width="1.5"/>
</svg>
